<svg xmlns="http://www.w3.org/2000/svg" xmlns:xlink="http://www.w3.org/1999/xlink" width="11" height="16" version="1.1" viewBox="0 0 11 16"><title>9D989C57-0E5B-42F3-BB2C-0906D79CFD6A</title><desc>Created with sketchtool.</desc><g id="6.1-STO-issuer-side" fill="none" fill-rule="evenodd" stroke="none" stroke-width="1"><g id="STO-config-peg-to-usd-tiers-3" fill="#8C9BA5" transform="translate(-790.000000, -820.000000)"><g id="token-details" transform="translate(120.000000, 204.000000)"><g id="blocks" transform="translate(24.000000, 471.000000)"><g id="table" transform="translate(0.000000, 106.000000)"><g id="table-row" transform="translate(0.000000, 31.000000)"><g id="UI-Icon/Icon/delete/$ui-05" transform="translate(646.000000, 8.000000)"><g id="delete"><rect id="Rectangle-path" width="5.333" height="1.333" x="2.667" y="0"/><path id="Shape" d="M0,2 L0,4.66666667 L0.666666667,4.66666667 L0.666666667,16 L10,16 L10,4.66666667 L10.6666667,4.66666667 L10.6666667,2 L0,2 L0,2 L0,2 Z M8.66666667,14 L2,14 L2,5.33333333 L8.66666667,5.33333333 L8.66666667,14 L8.66666667,14 Z"/><rect id="Rectangle-path_1_" width="1.333" height="6" x="3.333" y="6.667"/><rect id="Rectangle-path_2_" width="1.333" height="6" x="6" y="6.667"/></g></g></g></g></g></g></g></g></svg>