<svg xmlns="http://www.w3.org/2000/svg" width="64" height="64" fill="none" viewBox="0 0 64 64"><path fill="#000" fill-rule="evenodd" d="M32 5.33333C46.6667 5.33333 58.6667 17.3333 58.6667 32C58.6667 46.6667 46.6667 58.6667 32 58.6667C17.3333 58.6667 5.33333 46.6667 5.33333 32C5.33333 17.3333 17.3333 5.33333 32 5.33333ZM32 0C14.4 0 0 14.4 0 32C0 49.6 14.4 64 32 64C49.6 64 64 49.6 64 32C64 14.4 49.6 0 32 0Z" clip-rule="evenodd"/><path fill="#000" fill-rule="evenodd" d="M28.6667 26.3333C28.6667 25.5973 29.264 25 30 25H34C34.736 25 35.3333 25.5973 35.3333 26.3333V27.6667H34V26.6667C34 26.4827 33.8507 26.3333 33.6667 26.3333H30.3333C30.1493 26.3333 30 26.4827 30 26.6667V27.6667H28.6667V26.3333ZM24 38.3333H40V28.3333H24V38.3333Z" clip-rule="evenodd"/><rect width="6" height="6" x="16" y="16" fill="#000"/><rect width="6" height="6" x="16" y="42" fill="#000"/><rect width="6" height="6" x="42" y="16" fill="#000"/><rect width="6" height="6" x="42" y="42" fill="#000"/><rect width="2" height="18" x="18" y="22" fill="#000"/><rect width="2" height="18" x="44" y="24" fill="#000"/><rect width="18" height="2" x="24" y="18" fill="#000"/><rect width="19" height="2" x="22" y="44" fill="#000"/></svg>